<?xml version="1.0" encoding="UTF-8" standalone="no"?>
<!-- Created with Inkscape (http://www.inkscape.org/) -->

<svg
   xmlns:dc="http://purl.org/dc/elements/1.1/"
   xmlns:cc="http://creativecommons.org/ns#"
   xmlns:rdf="http://www.w3.org/1999/02/22-rdf-syntax-ns#"
   xmlns:svg="http://www.w3.org/2000/svg"
   xmlns="http://www.w3.org/2000/svg"
   xmlns:sodipodi="http://sodipodi.sourceforge.net/DTD/sodipodi-0.dtd"
   xmlns:inkscape="http://www.inkscape.org/namespaces/inkscape"
   version="1.1"
   id="svg12313"
   xml:space="preserve"
   width="800"
   height="800"
   viewBox="0 0 800 800"
   sodipodi:docname="Romanian-flag-paint-publicdomainvectors.org.svg"
   inkscape:version="0.92.4 (5da689c313, 2019-01-14)"><metadata
     id="metadata12319"><rdf:RDF><cc:Work
         rdf:about=""><dc:format>image/svg+xml</dc:format><dc:type
           rdf:resource="http://purl.org/dc/dcmitype/StillImage" /><dc:title></dc:title></cc:Work></rdf:RDF></metadata><defs
     id="defs12317"><clipPath
       clipPathUnits="userSpaceOnUse"
       id="clipPath12329"><path
         d="M 0,600 H 600 V 0 H 0 Z"
         id="path12327"
         inkscape:connector-curvature="0" /></clipPath></defs><sodipodi:namedview
     pagecolor="#ffffff"
     bordercolor="#666666"
     borderopacity="1"
     objecttolerance="10"
     gridtolerance="10"
     guidetolerance="10"
     inkscape:pageopacity="0"
     inkscape:pageshadow="2"
     inkscape:window-width="1920"
     inkscape:window-height="1018"
     id="namedview12315"
     showgrid="false"
     inkscape:zoom="1.06125"
     inkscape:cx="400"
     inkscape:cy="400"
     inkscape:window-x="-8"
     inkscape:window-y="-8"
     inkscape:window-maximized="1"
     inkscape:current-layer="g12321" /><g
     id="g12321"
     inkscape:groupmode="layer"
     inkscape:label="Romanian-flag-paint-publicdomainvectors.org"
     transform="matrix(1.3333333,0,0,-1.3333333,0,800)"><g
       id="g12323"><g
         id="g12325"
         clip-path="url(#clipPath12329)"><path
           d="m 25.417,243.254 h -7.055 c -0.43,-0.285 -0.847,-0.543 -1.245,-0.729 2.46,-0.464 4.906,-0.265 8.3,0.729"
           style="fill:#28519b;fill-opacity:1;fill-rule:nonzero;stroke:none"
           id="path12331"
           inkscape:connector-curvature="0" /><path
           d="m 175.275,163.348 c -4.991,-0.309 -9.386,-2.313 -13.44,-1.037 0.794,0.228 2.038,0.023 2.062,1.037 -4.437,-2.672 -8.437,0.121 -11.37,-3.114 7.365,-0.201 15.166,0.055 23.264,0.53 v 2.613 c -0.171,-0.01 -0.345,-0.02 -0.516,-0.029"
           style="fill:#28519b;fill-opacity:1;fill-rule:nonzero;stroke:none"
           id="path12333"
           inkscape:connector-curvature="0" /><path
           d="m 164.936,189.191 c -1.803,0.006 -3.339,-1.257 -5.171,-1.039 -1.356,0.159 -1.404,1.094 -3.098,1.039 -1.87,-0.072 -2.379,-1.238 -4.14,-1.039 -0.231,0.026 -2.671,1.961 -3.096,2.071 -5.603,1.355 -11.189,0.146 -16.543,1.025 -1.604,0.268 -2.696,1.695 -4.127,2.072 -1.621,0.424 -3.547,-0.334 -5.174,0 -1.796,0.364 -3.314,2.549 -5.172,3.102 -1.262,0.377 -2.841,-0.285 -4.128,0 -0.395,0.092 -2.562,1.9 -3.109,2.064 -3.769,1.098 -5.901,0.28 -9.3,1.037 -1.171,0.256 -2.308,1.967 -3.108,2.065 -1.883,0.25 -2.332,-0.971 -4.128,-1.031 -1.16,-0.043 -1.604,1.457 -2.076,0 4.868,-1.221 1.955,-3 0,-5.168 7.174,0.906 8.838,-4.219 14.473,-2.069 -2.004,-3.455 0.376,-0.56 3.107,-1.039 1.361,-0.23 2.101,-1.779 3.108,-2.058 1.555,-0.444 3.643,0.547 5.161,0 0.279,-0.11 0.693,-1.856 1.032,-2.071 3.412,-2.07 7.662,0.086 10.345,0 2.009,-0.078 5.451,-1.601 8.262,-2.07 7.941,-1.281 14.213,-1.582 20.672,-3.096 -5.779,0.916 -3.85,-1.048 -5.166,-3.101 -4.001,1.541 -14.65,1.845 -18.596,0 9.781,-0.959 27.015,-1.19 38.247,-6.211 -4.33,-0.207 -15.615,0.918 -8.275,-2.07 -3.352,-0.581 -5.203,0.316 -6.21,2.07 0.097,-0.328 -2.313,-3.217 -4.129,-2.07 -0.656,0.425 1.931,2.119 0,2.07 -0.539,-0.012 -1.213,-2.119 -3.102,-2.07 -3.703,0.115 -7.17,4.134 -11.37,2.07 1.22,-0.151 2.938,0.183 3.101,-1.026 -15.589,1.161 -32.266,4.858 -45.489,5.166 1.544,0.17 3.826,-0.369 4.141,1.04 -8.852,-0.579 -15.529,6.507 -22.741,4.132 5.712,-1.869 12.093,-3.07 17.568,-5.172 -1.833,-0.236 -5.172,1.045 -4.139,-2.076 2.731,-1.603 16.895,-4.074 16.548,-1.025 -2.112,-0.887 -5.706,1.627 -3.108,2.064 3.995,-2.847 8.754,-2.027 13.441,-3.103 0.303,-0.065 1.578,-1.967 2.076,-2.07 1.822,-0.358 4.178,0.578 6.193,0 1.408,-0.389 2.986,-2.635 4.14,-3.09 3.4,-1.371 6.082,-0.407 9.3,-1.032 2.514,1.389 0.644,2.057 2.07,3.09 2.605,0.389 4.578,-1.664 7.237,-2.058 3.818,-0.584 8.839,1.064 14.473,1.025 3.354,-0.016 7.111,-0.344 10.855,-0.531 v 19.59 c -3.542,0.283 -6.713,0.564 -10.855,0.593"
           style="fill:#28519b;fill-opacity:1;fill-rule:nonzero;stroke:none"
           id="path12335"
           inkscape:connector-curvature="0" /><path
           d="m 19.268,249.736 c -0.031,0.006 -0.062,0.012 -0.094,0.02 -1.235,-0.676 -0.739,-0.445 0.094,-0.02"
           style="fill:#28519b;fill-opacity:1;fill-rule:nonzero;stroke:none"
           id="path12337"
           inkscape:connector-curvature="0" /><path
           d="m 168.038,500.611 c -0.182,-5.737 -8.657,0.922 -8.274,-1.032 0.637,-0.06 1.232,-0.164 1.037,-1.037 -0.273,-1.459 -2.271,-1.179 -3.102,-2.065 -4.862,-0.602 -7.297,-1.112 -10.338,-2.07 -3.279,-1.032 -7.515,-3.345 -9.307,-4.135 -2.75,-1.213 -6.246,-1.967 -9.294,-3.107 -6.204,-2.314 -12.361,-5.556 -17.582,-7.237 -2.677,-0.856 -7.176,-4.378 -9.3,0 0.637,3.156 5.56,2.027 6.205,5.173 -3.134,-0.25 -7.54,-5.707 -9.313,-1.033 0.716,2.046 6.168,-0.643 5.172,3.097 -4.067,1.177 -7.182,-3.115 -8.267,1.038 0.327,2.428 3.197,2.312 4.139,4.14 -5.476,-1.226 -4.675,-2.557 -7.248,1.032 -2.562,3.582 -4.65,9.664 -8.269,7.236 2.283,-0.886 4.219,-7.43 2.077,-9.3 -2.125,4.425 -3.728,9.355 -8.27,11.365 -0.315,-2.029 1.391,-2.052 2.064,-3.097 0.839,-1.312 1.366,-3.769 2.064,-5.172 1.846,-3.698 7.407,-10.12 5.173,-13.441 -0.461,5.208 -3.4,6.61 -5.173,9.306 -2.288,3.474 -2.75,7.989 -6.197,10.339 2.64,-6.587 4.327,-10.126 7.23,-16.543 -0.175,0.4 0.643,1.203 1.032,0 0.11,-0.322 2.088,-3.97 2.077,-5.172 -0.012,-0.717 -1.209,-1.634 -1.045,-2.07 1.045,-2.672 6.909,-4.086 3.109,-7.231 -2.333,0.43 0.157,5.665 -3.109,5.172 -0.911,-3.083 3.23,-6.302 1.045,-7.242 -2.103,3.424 -2.648,8.384 -6.206,10.339 -1.42,-2.355 2.665,-3.892 0,-4.135 -2.379,4.378 -3.921,9.805 -6.198,14.474 -0.892,1.821 -1.427,4.037 -2.07,5.172 -3.387,5.926 0.899,-6.167 -1.039,-7.243 1.489,-2.282 2.521,1.299 3.109,-1.031 -0.309,-2.788 4.316,-5.908 1.032,-8.275 0.061,2.234 -1.22,8.31 -3.102,5.173 3.303,-0.779 -1.08,-7.645 1.032,-7.232 0,0.572 0.832,1.172 1.038,0 -0.176,-3.078 2.392,-6.927 1.032,-11.376 -1.299,4.377 -3.126,10.837 -6.204,10.338 -0.704,2.745 -1.634,5.27 -3.103,7.237 -3.556,-2.98 3.315,-7.783 0,-10.332 0.597,3.562 -3.41,6.167 -5.166,9.294 -1.056,1.901 -1.195,4.65 -2.07,6.204 -0.655,1.178 -2.549,2.155 -3.102,3.109 0.492,-0.857 1.147,3.794 -1.032,1.031 2.957,-1.201 -1.67,-1.201 -2.065,0 -0.928,-3.431 5.738,-4.486 3.097,-6.204 0.073,2.544 -2.41,1.585 -4.134,3.097 -2.95,2.604 -5.269,8.462 -8.268,7.242 3.509,-4.068 8.013,-7.146 9.305,-13.441 -2.166,0.291 -2.349,3.308 -3.108,4.135 -1.899,2.1 -1.718,1.213 -4.133,2.064 -0.098,-4.573 5.645,-3.309 5.172,-8.269 0.31,-2.38 -2.987,-1.141 -3.102,-3.096 1.317,-1.511 4.661,-6.266 3.103,-7.237 -2.849,1.973 -6.17,3.491 -7.237,7.237 -5.804,0.181 3.594,-3.486 0,-4.14 -0.014,1.044 -1.816,1.304 -2.07,0 3.114,-3.103 9.391,-8.5 7.242,-13.43 -0.681,3.461 -3.959,4.312 -5.172,7.231 0.679,-6.915 6.003,-14.643 4.134,-20.677 -1.36,4.055 -2.058,11.086 -5.172,10.344 0.284,1.318 1.038,1.427 1.038,3.102 0,5.913 -1.408,-2.373 -1.038,-2.069 -0.778,-0.651 -5.009,4.164 -5.167,3.095 0.134,-3.697 5.791,-7.242 2.063,-11.37 0.208,2.962 0.136,5.634 -3.095,5.173 -1.269,-2.502 2.452,-2.163 2.064,-4.135 -0.067,-0.358 -2.501,-1.075 -2.064,-2.076 0.272,-0.608 3.788,-0.291 3.096,-2.064 -2.143,-0.577 -2.186,-1.615 -1.032,-3.102 -1.256,0.327 -3.557,-2.988 -1.032,-3.102 0.231,0.806 0.024,2.045 1.032,2.069 0.595,-3.345 -0.31,-5.202 -2.064,-6.204 1.26,-3.172 2.2,-7.355 2.897,-11.297 h 1.229 c -0.021,-1.846 -1.243,-5.198 -1.03,-6.959 0.364,-2.854 2.222,-5.477 2.071,-8.264 -0.061,-1.25 -2.168,-1.074 -2.071,-2.076 0.013,-0.078 1.908,0.085 2.071,0 2.252,-1.008 -1.014,-2.392 -1.033,-2.063 0.128,-2.083 1.84,-4.396 2.065,-7.232 0.114,-1.407 -1.234,-3.545 -1.032,-5.166 0.035,-0.279 1.899,-1.232 2.07,-2.076 -0.014,0.055 -1.354,-1.65 -1.038,-3.096 1.646,-7.388 2.689,-17.405 2.07,-26.881 -1.956,0.121 -0.722,3.418 -3.102,3.102 -0.019,-4.644 3.83,-7.497 0,-10.34 3.442,0.718 1.656,-2.13 1.032,-3.096 6.21,-0.471 2.361,-2.537 2.07,-6.203 3.947,-2.246 3.242,0.953 5.165,3.109 0.711,-6.673 -0.673,-11.949 3.108,-12.416 -4.242,-2.968 -0.381,-10.158 0,-15.493 0.055,-0.959 -1.031,-1.917 -1.037,-2.077 -0.061,-2.482 2.999,-6.258 0,-7.235 -1.05,4.237 -1.815,8.942 -2.071,11.37 -0.521,5.015 0.881,12.658 -4.133,13.435 0.691,-12.056 2.961,-28.04 2.07,-38.247 0.055,1.938 -0.796,2.194 -2.07,1.039 0.06,1.324 1.324,1.428 1.038,3.103 -2.823,0.091 -2.089,-1.732 -4.14,0 1.972,-4.845 0.491,-9.429 1.038,-14.48 0.388,-3.648 2.695,-8.408 2.064,-11.363 -1.955,-9.156 -11.753,-8.08 -18.602,-13.441 -0.776,-3.188 2.835,-1.987 2.064,-5.172 -1.688,-0.242 -4.473,-2.352 -6.598,-3.737 -0.219,-0.142 -0.435,-0.281 -0.638,-0.404 -0.359,-0.213 -1.285,-0.701 -1.977,-1.053 3.379,-0.818 6.346,2.647 4.042,-1.011 1.776,0.984 3.592,1.744 5.033,2.468 0.425,0.215 0.822,0.426 1.171,0.639 -0.546,-0.34 -0.74,0.486 0,1.039 1.554,1.147 4.493,2.326 5.172,1.025 -0.054,0.104 -3.23,-1.572 -3.103,-2.064 1.813,-0.932 3.275,2.629 4.007,0.465 -3.39,-0.377 -4.465,-3.065 -7.109,-4.193 4.239,-1.077 8.458,3.187 11.371,0 -2.106,0.886 -6.417,-0.893 -3.102,-2.059 0.012,1.348 2.865,1.31 3.102,0 -2.822,0.746 -2.082,-2.059 -4.133,-2.076 -2.02,2.519 -10.03,1.019 -10.17,-1.541 -0.914,-0.494 -1.692,-1.115 -2.239,-1.965 1.945,-0.695 2.74,-0.762 3.122,-0.588 l -0.015,-0.035 c 1.887,0.084 2.951,0.389 3.582,0.777 0.174,-0.045 0.357,-0.097 0.553,-0.154 0.399,1.439 0.818,2.012 1.275,2.291 0.735,-0.149 2.618,-0.217 3.892,0.182 -4.25,-4.372 4.127,-1.936 5.166,-4.133 -1.5,-0.559 -5.336,1.213 -5.166,-1.039 3.945,-1.785 6.798,1.767 7.236,-3.096 -3.363,-0.084 -6.364,-0.527 -8.269,-2.064 3.849,-1.737 6.496,1.603 10.333,2.064 -0.085,-0.006 2.628,-1.147 4.133,-1.031 6.527,0.478 10.814,1.14 16.543,-2.065 -4.643,-2.32 -9.166,3.85 -11.37,-2.07 4.139,1.348 6.8,-1.785 9.306,-2.07 2.138,-0.231 4.566,2.047 6.206,0 -8.427,-3.83 -12.494,3.757 -21.71,0 -2.872,1.548 1.79,4.226 -1.038,5.172 -1.59,-2.166 -6.138,-0.377 -2.07,-3.102 -3.206,-0.115 -2.951,3.248 -7.236,2.07 -1.227,-4.334 4.358,-1.851 5.172,-4.14 -4.171,1.088 -1.294,-2.252 -3.103,-3.098 -2.927,-1.383 -6.472,1.648 -11.371,-1.035 5.908,-0.486 6.047,-0.33 10.333,-2.065 -0.503,3.405 5.968,4.329 6.205,1.032 -1.215,-0.159 -2.926,0.175 -3.102,-1.032 1.96,-1.955 6.027,3.635 8.275,-1.033 -1.955,-0.23 -2.284,1.16 -4.135,1.033 -0.857,-3.771 4.207,-2.199 5.166,-3.109 0.643,-0.596 -1.907,-2.027 0,-2.064 4.924,4.791 6.247,-2.854 11.371,0 -0.486,-4.28 4.838,-2.745 7.243,-4.141 0.109,1.264 0.297,2.453 2.063,2.07 2.258,-0.23 5.561,-4.668 7.237,-2.07 -1.779,-0.049 -2.659,0.803 -3.102,2.07 7.017,1.44 11.139,0.299 15.51,-3.09 -3.484,-0.662 -9.604,1.319 -11.376,-1.031 7.201,-2.058 13.696,1.979 18.601,-3.109 -1.833,-0.237 -5.174,1.039 -4.128,-2.071 20.215,-3.896 38.677,-9.566 60.986,-11.369 0.147,-1.373 -4.199,-3.115 -1.031,-4.129 0.606,5.422 19.944,2.823 20.678,2.057 0.631,-0.654 -1.906,-1.996 0,-2.057 0.157,0.385 0.331,0.752 0.516,1.11 v 310.532 c -2.721,-0.291 -5.321,-0.405 -7.753,-0.222"
           style="fill:#28519b;fill-opacity:1;fill-rule:nonzero;stroke:none"
           id="path12339"
           inkscape:connector-curvature="0" /><path
           d="m 362.378,519.212 c -8.221,0 -17.229,0.82 -24.806,0 -2.986,-0.322 -6.265,-1.821 -9.312,-2.064 -7.184,-0.582 -14.631,0.784 -21.709,0 -4.329,-0.485 -7.977,-2.617 -12.392,-3.096 -9.5,-1.038 -19.554,0.218 -28.958,-1.045 -2.203,-0.284 -3.987,-1.674 -6.197,-2.064 -4.16,-0.722 -9.289,0.195 -11.377,0 -3.388,-0.303 -7.091,-1.79 -10.332,-2.064 -5.78,-0.491 -11.925,0.535 -17.57,0 -4.747,-0.455 -10.32,-2.459 -15.517,-3.108 -9.849,-1.219 -19.757,-4.008 -28.417,-4.938 V 190.301 c 0.402,0.771 0.884,1.465 1.553,1.98 4.341,-1.002 10.194,0 13.435,0 1.093,0 2.702,-1.135 3.096,-1.033 0.328,0.092 0.682,3.76 3.108,2.072 -0.387,-3.357 -3.63,-2.099 -5.171,-3.097 -0.85,-0.553 0.328,-1.717 -1.033,-2.071 0.388,0.1 -0.534,2.301 -2.064,2.071 -1.348,-0.213 -0.971,-1.676 -2.07,-2.071 -0.297,2.125 -2.762,2.061 -4.134,3.096 -0.412,-1.777 1.529,-2.652 0,-3.096 -2.533,0.118 -4.687,0.282 -6.72,0.446 v -19.59 c 4.164,-0.209 8.313,-0.24 11.879,0.531 0.565,0.129 -0.175,1.969 1.045,2.065 5.306,0.468 14.219,-1.487 21.698,-1.032 7.929,0.504 11.819,1.348 15.504,-3.09 -15.357,-3.154 -33.631,-3.128 -50.126,-4.105 v -2.613 c 11.094,0.646 22.746,1.707 34.622,2.584 3.946,0.285 10.532,0.613 15.504,1.027 11.311,0.945 27.63,5.936 37.221,3.107 -0.795,0.231 -2.161,-1.019 -2.064,-1.044 2.143,-0.418 3.672,1.917 5.166,0 -2.64,-0.461 -4.76,-1.452 -6.205,-3.09 3.68,-0.881 6.194,2.992 7.236,-1.037 -4.989,-0.184 -7.054,-3.286 -10.337,-5.166 4.898,0.527 4.129,1.296 2.07,-2.077 2.938,0.182 4.309,1.893 7.236,2.077 0.005,-1.04 -0.838,-1.239 -1.039,-2.077 3.479,-0.111 6.381,3.004 8.27,2.077 0.316,-0.159 -1.08,-2.077 -1.028,-2.077 2.842,-0.14 3.51,0.703 7.237,1.037 -0.061,-1.324 -1.323,-1.433 -1.037,-3.095 3.679,-1.61 0.637,3.508 3.102,3.095 2.144,-0.619 6.792,1.276 7.242,-1.037 -2.932,0.862 -2.689,-1.459 -5.173,-1.033 -1.279,-3.338 3.346,-0.789 2.071,-4.135 -1.688,0.76 -4.504,-2.05 -2.071,-2.064 0.14,1.701 7.098,1.701 7.231,0 -2.853,1.361 -3.539,-4.09 -2.058,-1.031 3.018,-0.28 3.169,2.336 6.2,2.064 -0.316,-1.252 2.987,-3.562 3.101,-1.033 -5.495,1.725 6.113,2.059 9.294,2.064 -1.741,-3.599 -0.376,-3.611 2.077,-5.171 -1.736,-1.426 -6.86,-4.772 -5.173,-6.198 3.145,4.268 13.229,5.334 13.44,9.305 5.5,0.705 7.322,5.088 14.473,4.135 -0.151,-1.227 -1.845,-2.344 0,-3.102 2.921,3.692 7.936,5.27 10.333,7.236 2.903,2.368 5.543,4.512 8.269,6.206 2.55,1.57 3.539,2.738 5.173,4.127 1.14,0.99 3.016,1.068 4.135,2.076 2.639,2.343 5.615,6.568 7.242,8.263 1.432,1.498 3.156,2.016 4.128,3.108 1.225,1.361 1.833,3.599 3.101,5.166 0.323,0.396 0.663,0.75 1.011,1.084 v 333.027 c -4.359,0.047 -8.814,0.05 -13.413,0.05"
           style="fill:#f8cd1a;fill-opacity:1;fill-rule:nonzero;stroke:none"
           id="path12341"
           inkscape:connector-curvature="0" /><path
           d="m 541.213,241.488 c 0.006,0.729 -0.119,1.301 -0.321,1.766 h -2.989 c 1.017,-0.676 2.093,-1.291 3.31,-1.766"
           style="fill:#cb2943;fill-opacity:1;fill-rule:nonzero;stroke:none"
           id="path12343"
           inkscape:connector-curvature="0" /><path
           d="m 542.483,423.148 c -4.477,-0.489 -8.908,-0.845 -12.549,0 z m 9.075,-42.098 c 1.942,0.541 8.408,1.809 6.191,3.096 -1.214,-0.151 -2.342,-1.833 -3.097,0 -0.23,3.729 10.005,2.338 7.239,5.166 -4.397,-0.23 -14.164,-2.105 -21.71,0 4.091,0.025 4.534,2.945 3.108,4.141 0.437,-1.712 -3.861,0.09 -4.141,1.032 1.543,0.188 3.812,-0.37 4.141,1.032 -3.254,-0.491 -4.226,1.287 -5.172,3.103 1.688,-0.753 4.491,2.051 2.064,2.057 0.449,-1.705 -3.855,0.098 -4.14,1.045 2.695,0.443 7.952,-0.14 11.376,2.064 6.32,1.899 -6.313,-0.194 -6.204,2.063 3.35,-0.588 4.812,0.711 7.236,1.039 6.969,-0.34 2.307,1.839 -2.064,1.037 -4.662,-1.572 -16.064,-1.833 -20.671,0 6.307,1.931 16.386,0.905 20.671,2.059 -8.699,1.713 4.892,0.838 4.128,4.141 -2.47,3.199 -5.476,-1.039 -8.268,-1.034 -3.54,0.007 -6.689,2.41 -10.334,3.098 5.682,0.182 12.034,-0.316 14.474,3.107 -0.206,3.236 -6.033,0.863 -7.237,3.098 5.877,0.672 14.45,-1.361 18.601,1.044 -2.202,0.57 -4.788,0.619 -7.536,0.457 0.099,0.074 0.209,0.136 0.3,0.218 h -3.096 c 2.755,2.664 -2.38,1.087 -1.032,5.166 2.051,-0.011 1.311,-2.818 4.128,-2.064 0.461,3.903 -5.39,1.487 -6.193,4.134 4.069,-0.285 7.176,0.395 8.269,3.096 -3.582,0.559 -9.81,-1.535 -10.344,2.071 7.818,0.455 13.555,2.986 18.612,6.197 -2.744,-1.226 -5.742,0.196 -9.3,0 -10.739,-0.57 -25.042,-3.521 -28.946,4.135 1.98,0.856 10.272,0.668 8.269,2.076 -6.338,1.475 -12.355,-2.775 -16.543,0 4.231,-1.251 7.553,2.185 11.377,3.102 2.154,0.51 3.915,-0.382 6.197,0 1.519,0.248 3.686,1.749 5.161,2.065 2.417,0.503 7.059,-1.986 7.248,2.07 -8.464,-2.902 -16.786,0.606 -24.817,1.031 -3.169,0.164 -6.836,-1.444 -10.332,-1.031 -2.022,0.23 -4.44,0.929 -6.204,2.069 -2.052,2.38 0.261,1.136 1.032,3.097 -4.663,-0.201 -12.416,-2.715 -16.538,0 5.361,1.687 10.696,-1.25 15.506,2.064 -3.267,2.203 -9.727,-3.473 -5.173,2.07 -3.473,0.643 -9.599,-1.329 -11.371,1.038 1.723,0.116 9.368,-0.571 6.204,1.026 -4.523,0.643 -8.268,2.07 -12.408,3.109 4.103,0.716 11.455,-1.804 12.408,2.057 -6.016,0.188 -11.424,-1.93 -16.542,0 3.132,1.367 8.863,0.109 11.376,2.076 -1.834,0.231 -5.178,-1.05 -4.134,2.059 3.454,-0.249 6.514,-2.216 8.269,1.038 -3.516,2.513 -7.285,-1.276 -10.339,2.064 3.291,1.542 9.641,0.011 12.402,2.071 -3.247,-1.185 -2.507,1.631 -4.134,2.069 -1.712,-1.81 -4.431,0.723 -7.236,1.033 -1.264,0.139 -1.457,-1.13 -3.097,-1.033 -5.135,0.304 -9.823,1.894 -12.409,2.064 0.779,2.337 5.793,0.408 8.27,1.033 1.451,-0.08 3.959,0.23 2.07,1.038 -1.718,-0.007 -3.449,0 -5.166,0 -1.044,0.813 -2.588,0.643 -4.142,3.108 4.816,1.117 8.537,-1.804 10.339,0 0.17,0.151 -8.388,2.07 -9.295,1.032 -1.328,0.054 -1.432,1.317 -3.107,1.032 -2.695,-2.532 -2.282,0.212 -3.097,1.032 -2.19,2.185 -10.696,-2.271 -10.344,2.07 6.15,0.049 13.246,-0.85 15.504,3.102 2.113,-0.941 6.788,-2.076 8.27,1.032 -3.413,-1.462 -2.575,2.107 -4.128,2.065 0.375,0.012 -1.336,-3.953 -4.142,-2.065 0.863,3.314 0.887,2.137 -1.032,4.135 10.941,0.237 23.108,-0.565 29.979,1.025 -7.867,3.583 -16.076,1.451 -24.805,1.038 -28.873,-1.342 -60.436,0.583 -86.838,2.07 8.275,0.681 19.281,-1.371 25.844,1.039 -1.809,0.941 -5.154,0.346 -6.199,2.058 6.489,3.509 19.396,0.589 26.871,3.102 -3.517,1.409 -7.626,0.012 -9.303,0 -2.124,-0.012 -5.451,0.716 -7.23,1.032 -12.956,2.32 -25.646,2.905 -39.311,3.052 V 186.135 c 1.068,1.023 2.207,1.851 3.124,3.056 3.496,4.565 6.858,9.362 9.307,13.436 2.306,3.83 4.462,6.908 5.173,11.363 6.257,2.356 11.121,6.108 18.606,7.244 2.585,-9.859 -1.397,-19.884 -2.071,-29.986 -0.091,-1.305 1.136,-1.42 1.033,-3.096 -0.37,-6.131 -2.277,-13.865 -1.033,-19.638 0.329,-1.535 1.845,-2.41 2.071,-4.139 0.4,-3.127 -1.165,-7.354 1.032,-10.34 -0.181,2.86 1.59,3.559 3.096,2.07 -0.861,-1.201 -1.359,-2.775 -1.027,-5.166 5.616,1.584 1.986,-4.728 2.065,-5.168 -0.019,0.049 1.87,-1.734 2.07,-2.068 3.29,-5.683 -1.919,-12.525 -1.044,-19.646 6.32,-0.801 3.715,7.322 5.172,11.371 1.044,1.135 4.445,5.076 2.065,6.211 0.321,-1.256 -2.981,-3.571 -3.097,-1.037 0.499,4.316 3.388,6.263 6.204,8.267 -2.088,0.844 0.651,5.451 1.033,7.236 -3.885,0.79 -0.711,-5.488 -5.172,-4.134 0.133,1.718 -3.346,6.574 1.032,6.205 -0.14,-1.227 -1.835,-2.346 0,-3.108 4.419,2.725 4.88,6.963 5.172,9.307 3.199,-2.854 3.982,-8.773 3.095,-11.365 -0.036,-0.129 -2.051,0.095 -2.062,0 -0.147,-2.479 1.261,-4.889 1.031,-7.239 -0.139,-1.466 -1.725,-2.171 -2.064,-4.132 -0.279,-1.682 0.218,-3.491 0,-5.172 4.055,1.418 3.046,6.465 5.171,9.304 0.657,0.87 2.149,0.924 2.907,1.805 -0.778,-0.767 -0.227,4.201 1.234,3.363 0.645,-1.767 3.121,-1.712 4.129,-3.103 -0.619,-1.547 -5.197,-4.315 -3.098,-5.166 1.543,1.215 2.915,2.594 4.129,4.135 1.185,-3.248 -1.621,-2.52 -2.063,-4.135 3.144,-3.242 4.462,5.963 8.268,2.059 0.303,6.591 3.289,10.501 9.313,11.376 1.13,2.999 1.274,6.989 5.16,7.243 -0.17,-2.664 -4.383,-6.551 -2.064,-8.28 1.736,3.666 3.703,7.217 5.171,10.332 0.536,1.161 1.847,1.932 2.066,3.114 0.036,0.213 -1.657,0.757 -1.032,2.058 0.212,0.455 1.639,1.414 2.064,2.076 2.076,3.206 2.998,6.715 6.197,8.27 1.391,-7.621 -3.466,-14.426 -2.069,-18.607 3.06,3.138 2.003,10.41 5.172,13.427 3.102,-8.359 -3.29,-17.72 -2.064,-23.767 2.356,4.189 1.615,8.73 3.096,13.429 0.752,2.385 3.193,4.723 4.134,7.248 1.147,3.061 0.195,4.366 1.038,6.206 1.227,2.646 3.631,6.173 4.135,8.261 0.382,1.627 -0.408,3.557 0,5.166 0.103,0.412 1.936,2.532 2.063,3.108 0.674,2.963 0.105,6.328 1.038,9.3 0.098,0.293 1.944,0.614 2.065,1.034 1.152,4.236 0.327,6.099 1.032,9.306 1.639,7.326 5.458,13.617 6.205,20.678 2.939,0.867 6.271,1.953 7.235,1.031 0.85,-0.806 0.948,-0.31 2.071,-1.031 0.916,-0.59 2.586,-2.812 3.101,-3.103 1.774,-1.02 4.299,-0.922 6.205,-2.071 1.633,-0.982 2.908,-3.568 4.134,-4.133 2.751,-1.257 6.509,-1.002 9.296,-2.066 5.014,-1.904 8.001,-5.5 12.408,-4.133 -2.926,1.549 -4.777,4.176 -9.301,4.133 -3.592,3.803 -7.03,7.846 -11.371,11.373 -0.94,0.752 -3.793,0.977 -5.166,2.057 -1.517,1.203 -2.937,3.205 -3.108,5.172 3.861,-0.661 5.075,-4.565 9.307,-2.063 1.22,-1.949 5.361,-6.277 7.231,-4.135 -1.725,1.676 -4.76,3.121 -7.231,5.166 -2.351,1.944 -5.956,4.08 -5.165,6.2 3.35,-2.872 8.814,-9.065 12.396,-8.264 -3.728,1.129 -1.834,3.115 -3.098,4.129 0.626,-0.498 -2.366,-0.971 -2.063,1.037 5.804,-0.176 -3.594,3.498 0,4.135 1.214,-0.151 2.343,-1.838 3.097,0 -1.088,0.824 -2.857,0.972 -3.686,2.052 h 2.11 c 0.347,-0.517 0.716,-1.011 1.576,-1.013 0.106,0.361 0.152,0.695 0.17,1.013 h 1.773 c -0.625,0.604 -1.278,0.991 -1.928,1.295 -0.054,0.166 -0.112,0.33 -0.19,0.483 h -0.957 c -1.135,0.441 -2.197,0.851 -2.996,1.959 0.35,2.009 -0.171,9.681 -4.135,7.236 1.694,0.752 4.493,-2.053 2.063,-2.064 -3.109,1.31 -3.556,4.146 -2.063,6.205 1.542,-2.248 5.171,-2.412 5.166,-6.205 5.736,1.25 6.277,-2.684 9.301,-4.135 -0.923,4.929 -5.951,5.762 -8.27,9.299 1.372,2.533 3.849,-1.133 4.13,1.041 -4.561,3.701 -9.312,7.216 -13.43,11.363 5.67,1.537 4.529,-3.734 8.269,-4.127 2.756,-0.123 -2.855,4.049 -1.031,4.127 1.31,0.06 3.544,-7.328 7.223,-4.127 -4.99,2.918 -7.188,8.65 -11.358,12.396 1.208,1.19 3.653,1.178 6.197,1.038 -0.929,-3.116 2.435,-1.731 4.13,-3.108 2.688,-2.156 4.758,-7.547 7.248,-6.199 -4.226,3.771 -8.943,9.342 -13.44,11.365 -1.028,0.473 -3.56,3.533 -4.135,4.147 -1.203,1.256 -1.415,3.381 -3.103,4.132 3.685,0.53 6.29,-5.347 8.269,-3.101 -0.887,1.275 -6.659,2.859 -4.135,4.135 2.253,-1.239 6.011,-6.332 8.264,-4.135 -2.005,-0.121 -3.068,2.211 -4.129,3.101 -1.324,1.1 -4.328,1.713 -4.135,4.136 3.491,1.651 4.407,-4.389 6.198,-1.038 -3.677,1.5 -6.15,4.188 -8.267,7.241 2.403,0.341 4.455,1.057 5.173,3.097 -4.299,0.189 -5.689,-1.791 -8.276,1.037 -0.754,2.071 1.986,2.005 2.072,3.103 -0.026,-0.273 -1.975,0.57 -2.072,1.031 -0.394,1.902 1.652,4.712 2.072,7.231 -4.092,-1.36 -1.569,10.752 -1.034,11.384 0.583,0.678 3.406,-0.595 3.103,1.026 -1.778,-0.062 -2.652,0.801 -3.103,2.063 3.927,4.335 -0.231,16.774 7.238,17.582 -1.143,5.621 2.178,6.769 4.128,9.294 -1.779,0.413 -2.649,-1.53 -3.097,0 6.235,2.818 13.745,-1.542 18.601,3.102 -6.763,0.56 -11.766,-0.631 -17.57,-1.031 -1.766,2.07 -1.505,8.383 1.032,9.312 8.675,-0.182 13.994,2.574 20.678,3.096 6.041,0.467 11.438,-0.892 13.441,2.07 -7.613,0.801 -10.15,-2.543 -15.504,0"
           style="fill:#cb2943;fill-opacity:1;fill-rule:nonzero;stroke:none"
           id="path12345"
           inkscape:connector-curvature="0" /></g></g></g></svg>